<svg width="20" height="20" viewBox="0 0 20 20" fill="none" xmlns="http://www.w3.org/2000/svg">
<path fill-rule="evenodd" clip-rule="evenodd" d="M10 18.3333C14.6024 18.3333 18.3334 14.6024 18.3334 9.99999C18.3334 5.39762 14.6024 1.66666 10 1.66666C5.39765 1.66666 1.66669 5.39762 1.66669 9.99999C1.66669 14.6024 5.39765 18.3333 10 18.3333ZM15.2665 14.0881C16.1441 12.9592 16.6667 11.5406 16.6667 9.99999C16.6667 6.60031 14.1219 3.79498 10.8334 3.3849V6.77167C12.271 7.14171 13.3334 8.44679 13.3334 9.99999C13.3334 10.6182 13.1651 11.1971 12.8718 11.6934L15.2665 14.0881ZM14.088 15.2666L11.6932 12.8719C11.197 13.1651 10.6182 13.3333 10 13.3333C9.38188 13.3333 8.80304 13.1651 8.30679 12.8719L5.91205 15.2666C7.04095 16.1441 8.45946 16.6667 10 16.6667C11.5406 16.6667 12.9591 16.1441 14.088 15.2666ZM6.66669 9.99999C6.66669 10.6182 6.83498 11.1971 7.12825 11.6934L4.73353 14.0881C3.85594 12.9592 3.33335 11.5406 3.33335 9.99999C3.33335 6.60031 5.87809 3.79498 9.16669 3.3849V6.77167C7.729 7.14171 6.66669 8.44679 6.66669 9.99999ZM10 11.6667C10.9205 11.6667 11.6667 10.9205 11.6667 9.99999C11.6667 9.07952 10.9205 8.33332 10 8.33332C9.07955 8.33332 8.33335 9.07952 8.33335 9.99999C8.33335 10.9205 9.07955 11.6667 10 11.6667Z" fill="#72767C"/>
</svg>
