<svg width="20" height="20" viewBox="0 0 20 20" fill="none" xmlns="http://www.w3.org/2000/svg">
<path fill-rule="evenodd" clip-rule="evenodd" d="M9.19101 12.5006C9.65092 12.4832 10.0378 12.842 10.0552 13.3019C10.0943 14.3387 10.1493 15.0955 10.2034 15.638C10.2566 16.1724 10.5792 16.4939 11.0288 16.5488C11.559 16.6136 12.307 16.6667 13.3333 16.6667C14.3597 16.6667 15.1077 16.6136 15.6379 16.5488C16.0873 16.4939 16.4101 16.1722 16.4633 15.6378C16.5636 14.6307 16.6667 12.8907 16.6667 10C16.6667 7.10933 16.5636 5.36935 16.4633 4.36224C16.4101 3.82778 16.0873 3.50615 15.6379 3.45121C15.1077 3.38639 14.3597 3.33334 13.3333 3.33334C12.307 3.33334 11.559 3.38639 11.0288 3.4512C10.5792 3.50617 10.2566 3.82766 10.2034 4.36199C10.1493 4.90455 10.0943 5.66129 10.0552 6.69811C10.0378 7.15802 9.65092 7.51678 9.19101 7.49942C8.7311 7.48205 8.37234 7.09515 8.3897 6.63524C8.42988 5.57104 8.48684 4.77953 8.54489 4.19677C8.66694 2.97163 9.52111 1.95643 10.8266 1.79685C11.4342 1.72256 12.2507 1.66668 13.3333 1.66668C14.416 1.66668 15.2325 1.72257 15.8401 1.79686C17.1457 1.95646 17.9997 2.97213 18.1218 4.19703C18.2292 5.27558 18.3333 7.07374 18.3333 10C18.3333 12.9263 18.2292 14.7244 18.1218 15.803C17.9997 17.0279 17.1457 18.0436 15.8401 18.2032C15.2325 18.2775 14.416 18.3333 13.3333 18.3333C12.2507 18.3333 11.4343 18.2775 10.8266 18.2032C9.52111 18.0436 8.66694 17.0284 8.54489 15.8032C8.48684 15.2205 8.42988 14.429 8.3897 13.3648C8.37234 12.9049 8.7311 12.518 9.19101 12.5006Z" fill="#72767C"/>
<path fill-rule="evenodd" clip-rule="evenodd" d="M6.00594 12.3274C6.33138 12.6528 6.33138 13.1805 6.00594 13.5059C5.68051 13.8314 5.15287 13.8314 4.82743 13.5059L1.91076 10.5893C1.58533 10.2638 1.58533 9.73618 1.91076 9.41074L4.82743 6.49408C5.15287 6.16864 5.68051 6.16864 6.00594 6.49408C6.33138 6.81951 6.33138 7.34715 6.00594 7.67259L4.51186 9.16667H12.5C12.9603 9.16667 13.3334 9.53976 13.3334 10C13.3334 10.4602 12.9603 10.8333 12.5 10.8333L4.51186 10.8333L6.00594 12.3274Z" fill="#72767C"/>
</svg>
