<svg width="83" height="83" viewBox="0 0 83 83" fill="none" xmlns="http://www.w3.org/2000/svg">
<path d="M20.73 74V67H25.34V68.09H22.08V69.92H25.04V70.97H22.08V72.91H25.34V74H20.73ZM26.1384 74L27.9384 71.38L26.1384 68.78H27.5984L28.7584 70.52L29.9184 68.78H31.3684L29.5784 71.38L31.3684 74H29.9184L28.7584 72.22L27.6084 74H26.1384ZM34.4577 74.12C33.951 74.12 33.501 74.0067 33.1077 73.78C32.721 73.5467 32.4177 73.2267 32.1977 72.82C31.9777 72.4133 31.8677 71.9533 31.8677 71.44C31.8677 70.8933 31.9777 70.4133 32.1977 70C32.4177 69.58 32.721 69.2533 33.1077 69.02C33.501 68.78 33.951 68.66 34.4577 68.66C35.111 68.66 35.6577 68.8333 36.0977 69.18C36.5377 69.5267 36.8177 70.0067 36.9377 70.62H35.5077C35.4477 70.3667 35.321 70.17 35.1277 70.03C34.941 69.89 34.7143 69.82 34.4477 69.82C34.1943 69.82 33.9777 69.8833 33.7977 70.01C33.6177 70.1367 33.4777 70.3167 33.3777 70.55C33.2843 70.7833 33.2377 71.0633 33.2377 71.39C33.2377 71.6367 33.2643 71.86 33.3177 72.06C33.3777 72.2533 33.4577 72.4167 33.5577 72.55C33.6643 72.6833 33.791 72.7867 33.9377 72.86C34.091 72.9333 34.261 72.97 34.4477 72.97C34.6277 72.97 34.7877 72.94 34.9277 72.88C35.0743 72.8133 35.1977 72.72 35.2977 72.6C35.4043 72.48 35.4743 72.3367 35.5077 72.17H36.9377C36.8177 72.7633 36.5343 73.2367 36.0877 73.59C35.6477 73.9433 35.1043 74.12 34.4577 74.12ZM40.5307 74.12C40.0307 74.12 39.5874 74.01 39.2007 73.79C38.8207 73.5633 38.524 73.2467 38.3107 72.84C38.0974 72.4333 37.9907 71.9667 37.9907 71.44C37.9907 70.9 38.094 70.42 38.3007 70C38.514 69.58 38.8107 69.2533 39.1907 69.02C39.5774 68.78 40.0274 68.66 40.5407 68.66C41.054 68.66 41.494 68.7733 41.8607 69C42.2274 69.2267 42.5074 69.5367 42.7007 69.93C42.9007 70.3167 43.0007 70.7567 43.0007 71.25C43.0007 71.3167 43.0007 71.39 43.0007 71.47C43.0007 71.55 42.994 71.6333 42.9807 71.72H38.9507V70.9H41.6507C41.6374 70.54 41.5274 70.26 41.3207 70.06C41.114 69.86 40.854 69.76 40.5407 69.76C40.314 69.76 40.1074 69.8167 39.9207 69.93C39.734 70.0433 39.5874 70.2133 39.4807 70.44C39.374 70.66 39.3207 70.9433 39.3207 71.29V71.58C39.3207 71.8733 39.3674 72.1267 39.4607 72.34C39.5607 72.5533 39.7007 72.72 39.8807 72.84C40.0607 72.96 40.274 73.02 40.5207 73.02C40.7874 73.02 40.994 72.9733 41.1407 72.88C41.2874 72.7867 41.404 72.66 41.4907 72.5H42.8607C42.7674 72.8 42.6107 73.0733 42.3907 73.32C42.1774 73.5667 41.914 73.7633 41.6007 73.91C41.2874 74.05 40.9307 74.12 40.5307 74.12ZM44.1666 74V66.8H45.5166V74H44.1666ZM46.8912 74V66.8H48.2412V74H46.8912ZM51.9858 74.12C51.4858 74.12 51.0424 74.01 50.6558 73.79C50.2758 73.5633 49.9791 73.2467 49.7658 72.84C49.5524 72.4333 49.4458 71.9667 49.4458 71.44C49.4458 70.9 49.5491 70.42 49.7558 70C49.9691 69.58 50.2658 69.2533 50.6458 69.02C51.0324 68.78 51.4824 68.66 51.9958 68.66C52.5091 68.66 52.9491 68.7733 53.3158 69C53.6824 69.2267 53.9624 69.5367 54.1558 69.93C54.3558 70.3167 54.4558 70.7567 54.4558 71.25C54.4558 71.3167 54.4558 71.39 54.4558 71.47C54.4558 71.55 54.4491 71.6333 54.4358 71.72H50.4058V70.9H53.1058C53.0924 70.54 52.9824 70.26 52.7758 70.06C52.5691 69.86 52.3091 69.76 51.9958 69.76C51.7691 69.76 51.5624 69.8167 51.3758 69.93C51.1891 70.0433 51.0424 70.2133 50.9358 70.44C50.8291 70.66 50.7758 70.9433 50.7758 71.29V71.58C50.7758 71.8733 50.8224 72.1267 50.9158 72.34C51.0158 72.5533 51.1558 72.72 51.3358 72.84C51.5158 72.96 51.7291 73.02 51.9758 73.02C52.2424 73.02 52.4491 72.9733 52.5958 72.88C52.7424 72.7867 52.8591 72.66 52.9458 72.5H54.3158C54.2224 72.8 54.0658 73.0733 53.8458 73.32C53.6324 73.5667 53.3691 73.7633 53.0558 73.91C52.7424 74.05 52.3858 74.12 51.9858 74.12ZM55.6216 74V68.78H56.8016L56.9016 69.57C57.0483 69.29 57.2616 69.07 57.5416 68.91C57.8216 68.7433 58.1583 68.66 58.5516 68.66C58.9583 68.66 59.305 68.7433 59.5916 68.91C59.8783 69.0767 60.0983 69.3167 60.2516 69.63C60.405 69.9433 60.4816 70.3267 60.4816 70.78V74H59.1316V70.91C59.1316 70.5567 59.0416 70.2833 58.8616 70.09C58.6883 69.8967 58.435 69.8 58.1016 69.8C57.895 69.8 57.705 69.8467 57.5316 69.94C57.3583 70.0333 57.2216 70.17 57.1216 70.35C57.0216 70.53 56.9716 70.7467 56.9716 71V74H55.6216ZM64.1819 74C63.8285 74 63.5185 73.9467 63.2519 73.84C62.9919 73.7267 62.7885 73.5433 62.6419 73.29C62.4952 73.03 62.4219 72.6767 62.4219 72.23V69.91H61.5219V68.78H62.4219L62.5719 67.33H63.7719V68.78H65.1219V69.91H63.7719V72.25C63.7719 72.4767 63.8219 72.6333 63.9219 72.72C64.0219 72.8067 64.1919 72.85 64.4319 72.85H65.1419V74H64.1819Z" fill="#70CF97"/>
<path d="M31.224 45V42.968H25.72V41.256L30.936 33.8H33.368V41.096H34.84V42.968H33.368V45H31.224ZM28.024 41.096H31.368V36.184L28.024 41.096ZM40.5103 45.192C39.6996 45.192 38.9956 45.048 38.3983 44.76C37.8116 44.472 37.3476 44.0773 37.0063 43.576C36.6756 43.0747 36.4836 42.504 36.4303 41.864H38.5423C38.6276 42.28 38.8463 42.632 39.1983 42.92C39.5503 43.208 39.9929 43.352 40.5263 43.352C40.9103 43.352 41.2463 43.256 41.5343 43.064C41.8223 42.872 42.0463 42.6107 42.2063 42.28C42.3663 41.9493 42.4463 41.5813 42.4463 41.176C42.4463 40.7387 42.3609 40.3653 42.1903 40.056C42.0303 39.7467 41.8063 39.512 41.5183 39.352C41.2409 39.1813 40.9156 39.096 40.5423 39.096C40.0943 39.096 39.7049 39.208 39.3743 39.432C39.0436 39.6453 38.8089 39.9067 38.6703 40.216H36.5903L37.5182 33.8H43.8063V35.688H39.1343L38.6543 38.168C38.8889 37.9227 39.2036 37.7253 39.5983 37.576C39.9929 37.416 40.4356 37.336 40.9263 37.336C41.5343 37.336 42.0623 37.4427 42.5103 37.656C42.9583 37.8587 43.3316 38.1413 43.6302 38.504C43.9289 38.856 44.1529 39.2613 44.3023 39.72C44.4516 40.1787 44.5263 40.6533 44.5263 41.144C44.5263 41.7413 44.4303 42.2853 44.2383 42.776C44.0463 43.2667 43.7689 43.6933 43.4062 44.056C43.0543 44.4187 42.6329 44.7013 42.1423 44.904C41.6516 45.096 41.1076 45.192 40.5103 45.192ZM48.3194 45L54.6074 33.8H56.7194L50.4314 45H48.3194ZM56.3034 45.192C55.7914 45.192 55.322 45.08 54.8954 44.856C54.4794 44.6213 54.1434 44.2907 53.8874 43.864C53.642 43.4267 53.5194 42.9147 53.5194 42.328C53.5194 41.7307 53.642 41.2187 53.8874 40.792C54.1434 40.3653 54.4794 40.04 54.8954 39.816C55.322 39.5813 55.7914 39.464 56.3034 39.464C56.8367 39.464 57.306 39.5813 57.7114 39.816C58.1274 40.04 58.458 40.3653 58.7034 40.792C58.9487 41.2187 59.0714 41.7307 59.0714 42.328C59.0714 42.9147 58.9487 43.4267 58.7034 43.864C58.458 44.2907 58.1274 44.6213 57.7114 44.856C57.2954 45.08 56.826 45.192 56.3034 45.192ZM56.2874 43.704C56.5007 43.704 56.6874 43.6507 56.8474 43.544C57.018 43.4373 57.1514 43.2827 57.2474 43.08C57.3434 42.8773 57.3914 42.6267 57.3914 42.328C57.3914 42.0187 57.3434 41.7627 57.2474 41.56C57.1514 41.3467 57.0234 41.1867 56.8634 41.08C56.7034 40.9733 56.5167 40.92 56.3034 40.92C56.1007 40.92 55.914 40.9733 55.7434 41.08C55.5834 41.1867 55.4554 41.3467 55.3594 41.56C55.2634 41.7627 55.2154 42.0187 55.2154 42.328C55.2154 42.6267 55.2634 42.8773 55.3594 43.08C55.4554 43.2827 55.5834 43.4373 55.7434 43.544C55.9034 43.6507 56.0847 43.704 56.2874 43.704ZM48.8154 39.352C48.2927 39.352 47.818 39.2347 47.3914 39C46.9754 38.7653 46.6447 38.4347 46.3994 38.008C46.154 37.5813 46.0314 37.0747 46.0314 36.488C46.0314 35.88 46.154 35.368 46.3994 34.952C46.6447 34.5253 46.9754 34.1947 47.3914 33.96C47.818 33.7253 48.2927 33.608 48.8154 33.608C49.338 33.608 49.8074 33.7253 50.2234 33.96C50.6394 34.1947 50.97 34.5253 51.2154 34.952C51.4607 35.368 51.5834 35.88 51.5834 36.488C51.5834 37.0747 51.4607 37.5813 51.2154 38.008C50.97 38.4347 50.6394 38.7653 50.2234 39C49.8074 39.2347 49.338 39.352 48.8154 39.352ZM48.7994 37.864C49.0127 37.864 49.1994 37.8107 49.3594 37.704C49.53 37.5973 49.658 37.4427 49.7434 37.24C49.8394 37.0373 49.8874 36.7867 49.8874 36.488C49.8874 36.168 49.8394 35.9067 49.7434 35.704C49.658 35.5013 49.53 35.3467 49.3594 35.24C49.1994 35.1333 49.018 35.08 48.8154 35.08C48.6127 35.08 48.426 35.1333 48.2554 35.24C48.0847 35.3467 47.9514 35.5067 47.8554 35.72C47.7594 35.9227 47.7114 36.1787 47.7114 36.488C47.7114 36.7867 47.7594 37.0373 47.8554 37.24C47.9514 37.4427 48.0794 37.5973 48.2394 37.704C48.41 37.8107 48.5967 37.864 48.7994 37.864Z" fill="#242731"/>
<path d="M70.8449 70.8449C76.6488 65.0411 80.6013 57.6465 82.2026 49.5962C83.8039 41.546 82.982 33.2018 79.841 25.6186C76.7 18.0355 71.3808 11.5541 64.5562 6.99401C57.7315 2.43393 49.7079 3.75066e-07 41.5 0C33.2921 -3.75066e-07 25.2685 2.43393 18.4438 6.99401C11.6192 11.5541 6.30004 18.0355 3.159 25.6186C0.0179631 33.2018 -0.803876 41.546 0.79741 49.5962C2.3987 57.6465 6.35119 65.041 12.1551 70.8449L22.2704 60.7296C18.4672 56.9263 15.8771 52.0807 14.8278 46.8054C13.7785 41.5302 14.317 36.0622 16.3753 31.093C18.4337 26.1238 21.9193 21.8766 26.3914 18.8884C30.8636 15.9002 36.1214 14.3053 41.5 14.3053C46.8786 14.3053 52.1364 15.9002 56.6086 18.8884C61.0807 21.8766 64.5664 26.1238 66.6247 31.093C68.683 36.0622 69.2215 41.5302 68.1722 46.8054C67.1229 52.0807 64.5328 56.9263 60.7296 60.7296L70.8449 70.8449Z" fill="#F3F3F3"/>
<path d="M32.088 1.08138C24.8999 2.75522 18.2882 6.31571 12.9345 11.3958C7.58071 16.476 3.67857 22.8919 1.63027 29.9824C-0.418031 37.0729 -0.538384 44.5814 1.28162 51.7338C3.10162 58.8863 6.79612 65.4241 11.9843 70.6732L22.1585 60.617C18.7587 57.1773 16.3377 52.8932 15.1451 48.2062C13.9525 43.5192 14.0313 38.5989 15.3736 33.9526C16.7158 29.3062 19.2729 25.1019 22.7812 21.7729C26.2895 18.4439 30.6221 16.1108 35.3324 15.0139L32.088 1.08138Z" fill="#70CF97"/>
</svg>
