<svg width="83" height="83" viewBox="0 0 83 83" fill="none" xmlns="http://www.w3.org/2000/svg">
<path d="M20.73 74V67H25.34V68.09H22.08V69.92H25.04V70.97H22.08V72.91H25.34V74H20.73ZM26.1384 74L27.9384 71.38L26.1384 68.78H27.5984L28.7584 70.52L29.9184 68.78H31.3684L29.5784 71.38L31.3684 74H29.9184L28.7584 72.22L27.6084 74H26.1384ZM34.4577 74.12C33.951 74.12 33.501 74.0067 33.1077 73.78C32.721 73.5467 32.4177 73.2267 32.1977 72.82C31.9777 72.4133 31.8677 71.9533 31.8677 71.44C31.8677 70.8933 31.9777 70.4133 32.1977 70C32.4177 69.58 32.721 69.2533 33.1077 69.02C33.501 68.78 33.951 68.66 34.4577 68.66C35.111 68.66 35.6577 68.8333 36.0977 69.18C36.5377 69.5267 36.8177 70.0067 36.9377 70.62H35.5077C35.4477 70.3667 35.321 70.17 35.1277 70.03C34.941 69.89 34.7143 69.82 34.4477 69.82C34.1943 69.82 33.9777 69.8833 33.7977 70.01C33.6177 70.1367 33.4777 70.3167 33.3777 70.55C33.2843 70.7833 33.2377 71.0633 33.2377 71.39C33.2377 71.6367 33.2643 71.86 33.3177 72.06C33.3777 72.2533 33.4577 72.4167 33.5577 72.55C33.6643 72.6833 33.791 72.7867 33.9377 72.86C34.091 72.9333 34.261 72.97 34.4477 72.97C34.6277 72.97 34.7877 72.94 34.9277 72.88C35.0743 72.8133 35.1977 72.72 35.2977 72.6C35.4043 72.48 35.4743 72.3367 35.5077 72.17H36.9377C36.8177 72.7633 36.5343 73.2367 36.0877 73.59C35.6477 73.9433 35.1043 74.12 34.4577 74.12ZM40.5307 74.12C40.0307 74.12 39.5874 74.01 39.2007 73.79C38.8207 73.5633 38.524 73.2467 38.3107 72.84C38.0974 72.4333 37.9907 71.9667 37.9907 71.44C37.9907 70.9 38.094 70.42 38.3007 70C38.514 69.58 38.8107 69.2533 39.1907 69.02C39.5774 68.78 40.0274 68.66 40.5407 68.66C41.054 68.66 41.494 68.7733 41.8607 69C42.2274 69.2267 42.5074 69.5367 42.7007 69.93C42.9007 70.3167 43.0007 70.7567 43.0007 71.25C43.0007 71.3167 43.0007 71.39 43.0007 71.47C43.0007 71.55 42.994 71.6333 42.9807 71.72H38.9507V70.9H41.6507C41.6374 70.54 41.5274 70.26 41.3207 70.06C41.114 69.86 40.854 69.76 40.5407 69.76C40.314 69.76 40.1074 69.8167 39.9207 69.93C39.734 70.0433 39.5874 70.2133 39.4807 70.44C39.374 70.66 39.3207 70.9433 39.3207 71.29V71.58C39.3207 71.8733 39.3674 72.1267 39.4607 72.34C39.5607 72.5533 39.7007 72.72 39.8807 72.84C40.0607 72.96 40.274 73.02 40.5207 73.02C40.7874 73.02 40.994 72.9733 41.1407 72.88C41.2874 72.7867 41.404 72.66 41.4907 72.5H42.8607C42.7674 72.8 42.6107 73.0733 42.3907 73.32C42.1774 73.5667 41.914 73.7633 41.6007 73.91C41.2874 74.05 40.9307 74.12 40.5307 74.12ZM44.1666 74V66.8H45.5166V74H44.1666ZM46.8912 74V66.8H48.2412V74H46.8912ZM51.9858 74.12C51.4858 74.12 51.0424 74.01 50.6558 73.79C50.2758 73.5633 49.9791 73.2467 49.7658 72.84C49.5524 72.4333 49.4458 71.9667 49.4458 71.44C49.4458 70.9 49.5491 70.42 49.7558 70C49.9691 69.58 50.2658 69.2533 50.6458 69.02C51.0324 68.78 51.4824 68.66 51.9958 68.66C52.5091 68.66 52.9491 68.7733 53.3158 69C53.6824 69.2267 53.9624 69.5367 54.1558 69.93C54.3558 70.3167 54.4558 70.7567 54.4558 71.25C54.4558 71.3167 54.4558 71.39 54.4558 71.47C54.4558 71.55 54.4491 71.6333 54.4358 71.72H50.4058V70.9H53.1058C53.0924 70.54 52.9824 70.26 52.7758 70.06C52.5691 69.86 52.3091 69.76 51.9958 69.76C51.7691 69.76 51.5624 69.8167 51.3758 69.93C51.1891 70.0433 51.0424 70.2133 50.9358 70.44C50.8291 70.66 50.7758 70.9433 50.7758 71.29V71.58C50.7758 71.8733 50.8224 72.1267 50.9158 72.34C51.0158 72.5533 51.1558 72.72 51.3358 72.84C51.5158 72.96 51.7291 73.02 51.9758 73.02C52.2424 73.02 52.4491 72.9733 52.5958 72.88C52.7424 72.7867 52.8591 72.66 52.9458 72.5H54.3158C54.2224 72.8 54.0658 73.0733 53.8458 73.32C53.6324 73.5667 53.3691 73.7633 53.0558 73.91C52.7424 74.05 52.3858 74.12 51.9858 74.12ZM55.6216 74V68.78H56.8016L56.9016 69.57C57.0483 69.29 57.2616 69.07 57.5416 68.91C57.8216 68.7433 58.1583 68.66 58.5516 68.66C58.9583 68.66 59.305 68.7433 59.5916 68.91C59.8783 69.0767 60.0983 69.3167 60.2516 69.63C60.405 69.9433 60.4816 70.3267 60.4816 70.78V74H59.1316V70.91C59.1316 70.5567 59.0416 70.2833 58.8616 70.09C58.6883 69.8967 58.435 69.8 58.1016 69.8C57.895 69.8 57.705 69.8467 57.5316 69.94C57.3583 70.0333 57.2216 70.17 57.1216 70.35C57.0216 70.53 56.9716 70.7467 56.9716 71V74H55.6216ZM64.1819 74C63.8285 74 63.5185 73.9467 63.2519 73.84C62.9919 73.7267 62.7885 73.5433 62.6419 73.29C62.4952 73.03 62.4219 72.6767 62.4219 72.23V69.91H61.5219V68.78H62.4219L62.5719 67.33H63.7719V68.78H65.1219V69.91H63.7719V72.25C63.7719 72.4767 63.8219 72.6333 63.9219 72.72C64.0219 72.8067 64.1919 72.85 64.4319 72.85H65.1419V74H64.1819Z" fill="#70CF97"/>
<path d="M30.104 45.192C29.2933 45.192 28.5893 45.048 27.992 44.76C27.4053 44.472 26.9413 44.0773 26.6 43.576C26.2693 43.0747 26.0773 42.504 26.024 41.864H28.136C28.2213 42.28 28.44 42.632 28.792 42.92C29.144 43.208 29.5867 43.352 30.12 43.352C30.504 43.352 30.84 43.256 31.128 43.064C31.416 42.872 31.64 42.6107 31.8 42.28C31.96 41.9493 32.04 41.5813 32.04 41.176C32.04 40.7387 31.9547 40.3653 31.784 40.056C31.624 39.7467 31.4 39.512 31.112 39.352C30.8347 39.1813 30.5093 39.096 30.136 39.096C29.688 39.096 29.2987 39.208 28.968 39.432C28.6373 39.6453 28.4027 39.9067 28.264 40.216H26.184L27.112 33.8H33.4V35.688H28.728L28.248 38.168C28.4827 37.9227 28.7973 37.7253 29.192 37.576C29.5867 37.416 30.0293 37.336 30.52 37.336C31.128 37.336 31.656 37.4427 32.104 37.656C32.552 37.8587 32.9253 38.1413 33.224 38.504C33.5227 38.856 33.7467 39.2613 33.896 39.72C34.0453 40.1787 34.12 40.6533 34.12 41.144C34.12 41.7413 34.024 42.2853 33.832 42.776C33.64 43.2667 33.3627 43.6933 33 44.056C32.648 44.4187 32.2267 44.7013 31.736 44.904C31.2453 45.096 30.7013 45.192 30.104 45.192ZM40.0571 45.192C39.2465 45.192 38.5425 45.048 37.9451 44.76C37.3585 44.472 36.8945 44.0773 36.5531 43.576C36.2225 43.0747 36.0305 42.504 35.9771 41.864H38.0891C38.1745 42.28 38.3931 42.632 38.7451 42.92C39.0971 43.208 39.5398 43.352 40.0731 43.352C40.4571 43.352 40.7931 43.256 41.0811 43.064C41.3691 42.872 41.5931 42.6107 41.7531 42.28C41.9131 41.9493 41.9931 41.5813 41.9931 41.176C41.9931 40.7387 41.9078 40.3653 41.7371 40.056C41.5771 39.7467 41.3531 39.512 41.0651 39.352C40.7878 39.1813 40.4625 39.096 40.0891 39.096C39.6411 39.096 39.2518 39.208 38.9211 39.432C38.5905 39.6453 38.3558 39.9067 38.2171 40.216H36.1371L37.0651 33.8H43.3531V35.688H38.6811L38.2011 38.168C38.4358 37.9227 38.7505 37.7253 39.1451 37.576C39.5398 37.416 39.9825 37.336 40.4731 37.336C41.0811 37.336 41.6091 37.4427 42.0571 37.656C42.5051 37.8587 42.8785 38.1413 43.1771 38.504C43.4758 38.856 43.6998 39.2613 43.8491 39.72C43.9985 40.1787 44.0731 40.6533 44.0731 41.144C44.0731 41.7413 43.9771 42.2853 43.7851 42.776C43.5931 43.2667 43.3158 43.6933 42.9531 44.056C42.6011 44.4187 42.1798 44.7013 41.6891 44.904C41.1985 45.096 40.6545 45.192 40.0571 45.192ZM47.8663 45L54.1543 33.8H56.2663L49.9783 45H47.8663ZM55.8503 45.192C55.3383 45.192 54.8689 45.08 54.4423 44.856C54.0263 44.6213 53.6903 44.2907 53.4343 43.864C53.1889 43.4267 53.0663 42.9147 53.0663 42.328C53.0663 41.7307 53.1889 41.2187 53.4343 40.792C53.6903 40.3653 54.0263 40.04 54.4423 39.816C54.8689 39.5813 55.3383 39.464 55.8503 39.464C56.3836 39.464 56.8529 39.5813 57.2583 39.816C57.6743 40.04 58.0049 40.3653 58.2503 40.792C58.4956 41.2187 58.6183 41.7307 58.6183 42.328C58.6183 42.9147 58.4956 43.4267 58.2503 43.864C58.0049 44.2907 57.6743 44.6213 57.2583 44.856C56.8423 45.08 56.3729 45.192 55.8503 45.192ZM55.8343 43.704C56.0476 43.704 56.2343 43.6507 56.3943 43.544C56.5649 43.4373 56.6983 43.2827 56.7943 43.08C56.8903 42.8773 56.9383 42.6267 56.9383 42.328C56.9383 42.0187 56.8903 41.7627 56.7943 41.56C56.6983 41.3467 56.5703 41.1867 56.4103 41.08C56.2503 40.9733 56.0636 40.92 55.8503 40.92C55.6476 40.92 55.4609 40.9733 55.2903 41.08C55.1303 41.1867 55.0023 41.3467 54.9062 41.56C54.8103 41.7627 54.7623 42.0187 54.7623 42.328C54.7623 42.6267 54.8103 42.8773 54.9062 43.08C55.0023 43.2827 55.1303 43.4373 55.2903 43.544C55.4503 43.6507 55.6316 43.704 55.8343 43.704ZM48.3623 39.352C47.8396 39.352 47.3649 39.2347 46.9383 39C46.5223 38.7653 46.1916 38.4347 45.9463 38.008C45.7009 37.5813 45.5783 37.0747 45.5783 36.488C45.5783 35.88 45.7009 35.368 45.9463 34.952C46.1916 34.5253 46.5223 34.1947 46.9383 33.96C47.3649 33.7253 47.8396 33.608 48.3623 33.608C48.8849 33.608 49.3543 33.7253 49.7703 33.96C50.1863 34.1947 50.5169 34.5253 50.7623 34.952C51.0076 35.368 51.1303 35.88 51.1303 36.488C51.1303 37.0747 51.0076 37.5813 50.7623 38.008C50.5169 38.4347 50.1863 38.7653 49.7703 39C49.3543 39.2347 48.8849 39.352 48.3623 39.352ZM48.3463 37.864C48.5596 37.864 48.7463 37.8107 48.9062 37.704C49.0769 37.5973 49.2049 37.4427 49.2903 37.24C49.3863 37.0373 49.4343 36.7867 49.4343 36.488C49.4343 36.168 49.3863 35.9067 49.2903 35.704C49.2049 35.5013 49.0769 35.3467 48.9062 35.24C48.7463 35.1333 48.5649 35.08 48.3623 35.08C48.1596 35.08 47.9729 35.1333 47.8023 35.24C47.6316 35.3467 47.4983 35.5067 47.4023 35.72C47.3063 35.9227 47.2582 36.1787 47.2582 36.488C47.2582 36.7867 47.3063 37.0373 47.4023 37.24C47.4983 37.4427 47.6263 37.5973 47.7863 37.704C47.9569 37.8107 48.1436 37.864 48.3463 37.864Z" fill="#242731"/>
<path d="M70.8449 70.8449C76.6488 65.0411 80.6013 57.6465 82.2026 49.5962C83.8039 41.546 82.982 33.2018 79.841 25.6186C76.7 18.0355 71.3808 11.5541 64.5562 6.99401C57.7315 2.43393 49.7079 3.75066e-07 41.5 0C33.2921 -3.75066e-07 25.2685 2.43393 18.4438 6.99401C11.6192 11.5541 6.30004 18.0355 3.159 25.6186C0.0179631 33.2018 -0.803876 41.546 0.79741 49.5962C2.3987 57.6465 6.35119 65.041 12.1551 70.8449L22.2704 60.7296C18.4672 56.9263 15.8771 52.0807 14.8278 46.8054C13.7785 41.5302 14.317 36.0622 16.3753 31.093C18.4337 26.1238 21.9193 21.8766 26.3914 18.8884C30.8636 15.9002 36.1214 14.3053 41.5 14.3053C46.8786 14.3053 52.1364 15.9002 56.6086 18.8884C61.0807 21.8766 64.5664 26.1238 66.6247 31.093C68.683 36.0622 69.2215 41.5302 68.1722 46.8054C67.1229 52.0807 64.5328 56.9263 60.7296 60.7296L70.8449 70.8449Z" fill="#F3F3F3"/>
<path d="M55.258 2.34686C46.3863 -0.770542 36.7189 -0.782574 27.8395 2.31274C18.9601 5.40805 11.3952 11.4272 6.38395 19.3841C1.37273 27.341 -0.787637 36.7639 0.256753 46.1092C1.30114 55.4544 5.48837 64.168 12.1325 70.8223L22.2556 60.7148C17.9018 56.3542 15.1579 50.6443 14.4735 44.5204C13.7891 38.3965 15.2048 32.2217 18.4886 27.0076C21.7725 21.7934 26.7297 17.8491 32.5484 15.8208C38.367 13.7925 44.702 13.8003 50.5155 15.8432L55.258 2.34686Z" fill="#70CF97"/>
</svg>
