<svg width="298" height="342" viewBox="0 0 298 342" fill="none" xmlns="http://www.w3.org/2000/svg">
<path d="M5.544 24V9.816H0.624V7.2H13.68V9.816H8.76V24H5.544ZM14.7319 24V12.096H17.6119L17.9239 14.328C18.2119 13.816 18.5639 13.376 18.9799 13.008C19.4119 12.624 19.8999 12.328 20.4439 12.12C21.0039 11.912 21.6119 11.808 22.2679 11.808V15.24H21.3799C20.8839 15.24 20.4199 15.296 19.9879 15.408C19.5719 15.52 19.2119 15.704 18.9079 15.96C18.6039 16.216 18.3719 16.568 18.2119 17.016C18.0519 17.448 17.9719 18 17.9719 18.672V24H14.7319ZM28.4687 24.288C27.4607 24.288 26.6207 24.128 25.9487 23.808C25.2927 23.488 24.8047 23.056 24.4847 22.512C24.1647 21.968 24.0047 21.368 24.0047 20.712C24.0047 19.976 24.1887 19.336 24.5567 18.792C24.9407 18.232 25.5167 17.792 26.2847 17.472C27.0527 17.152 28.0207 16.992 29.1887 16.992H32.1887C32.1887 16.416 32.1007 15.944 31.9247 15.576C31.7647 15.192 31.5087 14.912 31.1567 14.736C30.8207 14.544 30.3887 14.448 29.8607 14.448C29.2367 14.448 28.7007 14.584 28.2527 14.856C27.8207 15.128 27.5487 15.544 27.4367 16.104H24.2927C24.3887 15.224 24.6847 14.464 25.1807 13.824C25.6767 13.184 26.3327 12.688 27.1487 12.336C27.9647 11.984 28.8687 11.808 29.8607 11.808C30.9967 11.808 31.9807 12 32.8127 12.384C33.6447 12.752 34.2847 13.304 34.7327 14.04C35.1967 14.76 35.4287 15.64 35.4287 16.68V24H32.6927L32.3327 22.152C32.1727 22.472 31.9647 22.76 31.7087 23.016C31.4687 23.272 31.1887 23.496 30.8687 23.688C30.5487 23.88 30.1887 24.024 29.7887 24.12C29.3887 24.232 28.9487 24.288 28.4687 24.288ZM29.2367 21.792C29.6687 21.792 30.0447 21.72 30.3647 21.576C30.7007 21.416 30.9807 21.208 31.2047 20.952C31.4447 20.696 31.6287 20.4 31.7567 20.064C31.9007 19.728 31.9967 19.368 32.0447 18.984H29.5487C29.0527 18.984 28.6447 19.048 28.3247 19.176C28.0207 19.288 27.7967 19.456 27.6527 19.68C27.5087 19.888 27.4367 20.136 27.4367 20.424C27.4367 20.712 27.5087 20.96 27.6527 21.168C27.7967 21.376 28.0047 21.536 28.2767 21.648C28.5487 21.744 28.8687 21.792 29.2367 21.792ZM44.2134 24.288C42.9974 24.288 41.9174 24.024 40.9734 23.496C40.0294 22.952 39.2854 22.216 38.7414 21.288C38.2134 20.344 37.9494 19.264 37.9494 18.048C37.9494 16.832 38.2134 15.76 38.7414 14.832C39.2854 13.888 40.0294 13.152 40.9734 12.624C41.9174 12.08 42.9974 11.808 44.2134 11.808C45.7494 11.808 47.0454 12.208 48.1014 13.008C49.1574 13.808 49.8214 14.912 50.0934 16.32H46.6854C46.5414 15.776 46.2454 15.352 45.7974 15.048C45.3494 14.728 44.8134 14.568 44.1894 14.568C43.6454 14.568 43.1494 14.712 42.7014 15C42.2534 15.272 41.9014 15.672 41.6454 16.2C41.3894 16.712 41.2614 17.328 41.2614 18.048C41.2614 18.592 41.3334 19.08 41.4774 19.512C41.6374 19.928 41.8454 20.288 42.1014 20.592C42.3734 20.896 42.6854 21.128 43.0374 21.288C43.3894 21.448 43.7734 21.528 44.1894 21.528C44.6054 21.528 44.9814 21.464 45.3174 21.336C45.6534 21.192 45.9414 20.992 46.1814 20.736C46.4214 20.464 46.5894 20.144 46.6854 19.776H50.0934C49.8214 21.152 49.1574 22.248 48.1014 23.064C47.0454 23.88 45.7494 24.288 44.2134 24.288ZM60.8087 24L55.6247 17.448L60.2087 12.096H64.0487L58.0967 18.792V16.224L64.8407 24H60.8087ZM52.8647 24V6.72H56.1047V24H52.8647ZM66.8357 24V12.096H70.0757V24H66.8357ZM68.4437 10.368C67.8677 10.368 67.3877 10.2 67.0037 9.864C66.6357 9.512 66.4517 9.072 66.4517 8.544C66.4517 8.016 66.6357 7.584 67.0037 7.248C67.3877 6.896 67.8677 6.72 68.4437 6.72C69.0357 6.72 69.5157 6.896 69.8837 7.248C70.2677 7.584 70.4597 8.016 70.4597 8.544C70.4597 9.072 70.2677 9.512 69.8837 9.864C69.5157 10.2 69.0357 10.368 68.4437 10.368ZM73.2788 24V12.096H76.1348L76.3748 14.088C76.7428 13.4 77.2708 12.848 77.9588 12.432C78.6468 12.016 79.4708 11.808 80.4308 11.808C81.4228 11.808 82.2628 12.024 82.9508 12.456C83.6388 12.872 84.1668 13.488 84.5348 14.304C84.9028 15.12 85.0868 16.128 85.0868 17.328V24H81.8468V17.616C81.8468 16.624 81.6468 15.864 81.2468 15.336C80.8468 14.808 80.2148 14.544 79.3508 14.544C78.8068 14.544 78.3188 14.68 77.8867 14.952C77.4548 15.208 77.1188 15.584 76.8788 16.08C76.6388 16.56 76.5188 17.152 76.5188 17.856V24H73.2788ZM93.2049 29.568C92.0689 29.568 91.0689 29.424 90.2049 29.136C89.3569 28.864 88.7009 28.44 88.2369 27.864C87.7729 27.304 87.5409 26.608 87.5409 25.776C87.5409 25.216 87.6849 24.688 87.9729 24.192C88.2609 23.712 88.6769 23.272 89.2209 22.872C89.7809 22.456 90.4689 22.104 91.2849 21.816L92.4849 23.424C91.7649 23.664 91.2449 23.96 90.9249 24.312C90.6049 24.68 90.4449 25.056 90.4449 25.44C90.4449 25.824 90.5649 26.136 90.8049 26.376C91.0609 26.632 91.3969 26.816 91.8129 26.928C92.2289 27.056 92.6929 27.12 93.2049 27.12C93.7009 27.12 94.1329 27.056 94.5009 26.928C94.8689 26.8 95.1569 26.608 95.3649 26.352C95.5889 26.112 95.7009 25.832 95.7009 25.512C95.7009 25.08 95.5489 24.728 95.2449 24.456C94.9409 24.2 94.3489 24.04 93.4689 23.976C92.6529 23.912 91.9329 23.816 91.3089 23.688C90.6849 23.56 90.1329 23.416 89.6529 23.256C89.1889 23.096 88.7889 22.912 88.4529 22.704C88.1169 22.496 87.8529 22.288 87.6609 22.08V21.528L90.2289 18.744L92.4849 19.488L89.5089 22.488L90.4449 20.904C90.6049 21.016 90.7729 21.12 90.9489 21.216C91.1249 21.296 91.3329 21.368 91.5729 21.432C91.8289 21.496 92.1569 21.56 92.5569 21.624C92.9569 21.672 93.4689 21.728 94.0929 21.792C95.1489 21.872 96.0129 22.064 96.6849 22.368C97.3569 22.672 97.8529 23.08 98.1729 23.592C98.4929 24.104 98.6529 24.72 98.6529 25.44C98.6529 26.144 98.4609 26.808 98.0769 27.432C97.6929 28.072 97.0929 28.584 96.2769 28.968C95.4769 29.368 94.4529 29.568 93.2049 29.568ZM93.2289 20.472C92.2209 20.472 91.3489 20.28 90.6129 19.896C89.8929 19.512 89.3329 18.992 88.9329 18.336C88.5489 17.68 88.3569 16.952 88.3569 16.152C88.3569 15.352 88.5489 14.624 88.9329 13.968C89.3329 13.312 89.8929 12.792 90.6129 12.408C91.3489 12.008 92.2209 11.808 93.2289 11.808C94.2369 11.808 95.1009 12.008 95.8209 12.408C96.5569 12.792 97.1169 13.312 97.5009 13.968C97.8849 14.624 98.0769 15.352 98.0769 16.152C98.0769 16.952 97.8849 17.68 97.5009 18.336C97.1169 18.992 96.5569 19.512 95.8209 19.896C95.1009 20.28 94.2369 20.472 93.2289 20.472ZM93.2289 18C93.8369 18 94.3329 17.848 94.7169 17.544C95.1009 17.224 95.2929 16.76 95.2929 16.152C95.2929 15.56 95.1009 15.112 94.7169 14.808C94.3329 14.488 93.8369 14.328 93.2289 14.328C92.6209 14.328 92.1169 14.488 91.7169 14.808C91.3329 15.112 91.1409 15.56 91.1409 16.152C91.1409 16.76 91.3329 17.224 91.7169 17.544C92.1169 17.848 92.6209 18 93.2289 18ZM95.1729 14.376L94.6449 12.096H99.6369V14.016L95.1729 14.376ZM118.575 24V7.2H121.815V24H118.575ZM107.991 24V7.2H111.231V24H107.991ZM110.799 16.728V14.112H119.127V16.728H110.799ZM125.078 24V12.096H128.318V24H125.078ZM126.686 10.368C126.11 10.368 125.63 10.2 125.246 9.864C124.878 9.512 124.694 9.072 124.694 8.544C124.694 8.016 124.878 7.584 125.246 7.248C125.63 6.896 126.11 6.72 126.686 6.72C127.278 6.72 127.758 6.896 128.126 7.248C128.51 7.584 128.702 8.016 128.702 8.544C128.702 9.072 128.51 9.512 128.126 9.864C127.758 10.2 127.278 10.368 126.686 10.368ZM136.465 24.288C135.409 24.288 134.473 24.112 133.657 23.76C132.857 23.408 132.209 22.928 131.713 22.32C131.233 21.696 130.953 20.992 130.873 20.208H134.113C134.177 20.496 134.313 20.768 134.521 21.024C134.729 21.264 134.993 21.456 135.313 21.6C135.633 21.744 136.001 21.816 136.417 21.816C136.865 21.816 137.217 21.76 137.473 21.648C137.745 21.52 137.945 21.36 138.073 21.168C138.217 20.96 138.289 20.752 138.289 20.544C138.289 20.224 138.185 19.984 137.977 19.824C137.785 19.648 137.505 19.504 137.137 19.392C136.769 19.28 136.329 19.16 135.817 19.032C135.289 18.904 134.753 18.76 134.209 18.6C133.681 18.44 133.193 18.24 132.745 18C132.297 17.744 131.937 17.424 131.665 17.04C131.393 16.656 131.257 16.168 131.257 15.576C131.257 14.872 131.449 14.24 131.833 13.68C132.233 13.104 132.793 12.648 133.513 12.312C134.249 11.976 135.121 11.808 136.129 11.808C137.569 11.808 138.713 12.136 139.561 12.792C140.425 13.448 140.929 14.352 141.073 15.504H138.025C137.945 15.12 137.737 14.824 137.401 14.616C137.081 14.408 136.657 14.304 136.129 14.304C135.569 14.304 135.137 14.408 134.833 14.616C134.545 14.824 134.401 15.08 134.401 15.384C134.401 15.608 134.505 15.8 134.713 15.96C134.921 16.12 135.209 16.264 135.577 16.392C135.961 16.504 136.401 16.616 136.897 16.728C137.761 16.936 138.537 17.16 139.225 17.4C139.913 17.624 140.465 17.96 140.881 18.408C141.313 18.856 141.529 19.512 141.529 20.376C141.545 21.112 141.345 21.776 140.929 22.368C140.513 22.96 139.929 23.432 139.177 23.784C138.425 24.12 137.521 24.288 136.465 24.288ZM149.249 24C148.401 24 147.657 23.872 147.017 23.616C146.393 23.344 145.905 22.904 145.553 22.296C145.201 21.672 145.025 20.824 145.025 19.752V14.808H142.985V12.096H145.025L145.385 8.856H148.265V12.096H151.433V14.808H148.265V19.8C148.265 20.344 148.385 20.72 148.625 20.928C148.865 21.136 149.273 21.24 149.849 21.24H151.361V24H149.249ZM159.475 24.288C158.339 24.288 157.307 24.024 156.379 23.496C155.467 22.968 154.739 22.232 154.195 21.288C153.651 20.344 153.379 19.264 153.379 18.048C153.379 16.816 153.651 15.736 154.195 14.808C154.739 13.864 155.475 13.128 156.403 12.6C157.331 12.072 158.363 11.808 159.499 11.808C160.651 11.808 161.691 12.072 162.619 12.6C163.547 13.128 164.275 13.864 164.803 14.808C165.347 15.736 165.619 16.816 165.619 18.048C165.619 19.28 165.347 20.368 164.803 21.312C164.259 22.24 163.523 22.968 162.595 23.496C161.683 24.024 160.643 24.288 159.475 24.288ZM159.499 21.48C160.011 21.48 160.475 21.352 160.891 21.096C161.323 20.84 161.667 20.456 161.923 19.944C162.195 19.432 162.331 18.8 162.331 18.048C162.331 17.28 162.203 16.648 161.947 16.152C161.691 15.64 161.347 15.256 160.915 15C160.499 14.744 160.035 14.616 159.523 14.616C159.011 14.616 158.539 14.744 158.107 15C157.675 15.256 157.331 15.64 157.075 16.152C156.819 16.648 156.691 17.28 156.691 18.048C156.691 18.8 156.819 19.432 157.075 19.944C157.331 20.456 157.667 20.84 158.083 21.096C158.515 21.352 158.987 21.48 159.499 21.48ZM168.365 24V12.096H171.245L171.557 14.328C171.845 13.816 172.197 13.376 172.613 13.008C173.045 12.624 173.533 12.328 174.077 12.12C174.637 11.912 175.245 11.808 175.901 11.808V15.24H175.013C174.517 15.24 174.053 15.296 173.621 15.408C173.205 15.52 172.845 15.704 172.541 15.96C172.237 16.216 172.005 16.568 171.845 17.016C171.685 17.448 171.605 18 171.605 18.672V24H168.365ZM179.51 29.28L182.486 22.656H181.766L176.894 12.096H180.422L183.902 19.728L187.022 12.096H190.478L182.942 29.28H179.51Z" fill="black"/>
<path d="M33 56H297" stroke="#F2F2F2" stroke-dasharray="4 4"/>
<path d="M33 100H297" stroke="#F2F2F2" stroke-dasharray="4 4"/>
<path d="M33 144H297" stroke="#F2F2F2" stroke-dasharray="4 4"/>
<path d="M33 188H297" stroke="#F2F2F2" stroke-dasharray="4 4"/>
<path d="M33 232H297" stroke="#F2F2F2" stroke-dasharray="4 4"/>
<path d="M33 276H297" stroke="#F2F2F2" stroke-dasharray="4 4"/>
<path d="M33 320H297" stroke="#F2F2F2" stroke-dasharray="4 4"/>
<path d="M3.564 68.144C3.028 68.144 2.536 68.048 2.088 67.856C1.648 67.656 1.296 67.36 1.032 66.968C0.776 66.568 0.64 66.068 0.624 65.468H1.824C1.832 65.772 1.904 66.048 2.04 66.296C2.176 66.544 2.372 66.744 2.628 66.896C2.892 67.04 3.204 67.112 3.564 67.112C3.924 67.112 4.224 67.044 4.464 66.908C4.712 66.772 4.896 66.588 5.016 66.356C5.144 66.124 5.208 65.864 5.208 65.576C5.208 65.224 5.12 64.936 4.944 64.712C4.776 64.488 4.544 64.32 4.248 64.208C3.96 64.096 3.636 64.04 3.276 64.04H2.652V63.044H3.276C3.788 63.044 4.196 62.928 4.5 62.696C4.804 62.456 4.956 62.124 4.956 61.7C4.956 61.348 4.836 61.06 4.596 60.836C4.364 60.604 4.02 60.488 3.564 60.488C3.108 60.488 2.748 60.616 2.484 60.872C2.22 61.128 2.072 61.452 2.04 61.844H0.84C0.864 61.372 0.992 60.956 1.224 60.596C1.456 60.228 1.772 59.948 2.172 59.756C2.572 59.556 3.036 59.456 3.564 59.456C4.132 59.456 4.604 59.556 4.98 59.756C5.364 59.948 5.656 60.208 5.856 60.536C6.056 60.864 6.156 61.224 6.156 61.616C6.156 61.912 6.096 62.192 5.976 62.456C5.864 62.712 5.704 62.932 5.496 63.116C5.288 63.3 5.032 63.432 4.728 63.512C5.048 63.568 5.332 63.692 5.58 63.884C5.836 64.068 6.036 64.304 6.18 64.592C6.332 64.88 6.408 65.212 6.408 65.588C6.408 66.044 6.3 66.468 6.084 66.86C5.868 67.244 5.548 67.556 5.124 67.796C4.708 68.028 4.188 68.144 3.564 68.144ZM11.2519 68.144C10.5239 68.144 9.89588 67.964 9.36788 67.604C8.84788 67.236 8.44788 66.728 8.16788 66.08C7.88788 65.424 7.74788 64.664 7.74788 63.8C7.74788 62.936 7.88788 62.18 8.16788 61.532C8.44788 60.876 8.84788 60.368 9.36788 60.008C9.89588 59.64 10.5239 59.456 11.2519 59.456C11.9879 59.456 12.6119 59.64 13.1239 60.008C13.6439 60.368 14.0439 60.876 14.3239 61.532C14.6119 62.18 14.7559 62.936 14.7559 63.8C14.7559 64.664 14.6119 65.424 14.3239 66.08C14.0439 66.728 13.6439 67.236 13.1239 67.604C12.6119 67.964 11.9879 68.144 11.2519 68.144ZM11.2519 67.076C11.6919 67.076 12.0799 66.944 12.4159 66.68C12.7599 66.416 13.0279 66.04 13.2199 65.552C13.4199 65.064 13.5199 64.48 13.5199 63.8C13.5199 63.112 13.4199 62.528 13.2199 62.048C13.0279 61.56 12.7599 61.188 12.4159 60.932C12.0799 60.668 11.6919 60.536 11.2519 60.536C10.8119 60.536 10.4199 60.668 10.0759 60.932C9.73188 61.188 9.45988 61.56 9.25988 62.048C9.06788 62.528 8.97188 63.112 8.97188 63.8C8.97188 64.48 9.06788 65.064 9.25988 65.552C9.45988 66.04 9.73188 66.416 10.0759 66.68C10.4199 66.944 10.8119 67.076 11.2519 67.076Z" fill="#A4A5A6"/>
<path d="M0.72 110V109.136C1.288 108.704 1.824 108.268 2.328 107.828C2.84 107.388 3.296 106.952 3.696 106.52C4.096 106.08 4.408 105.652 4.632 105.236C4.864 104.812 4.98 104.408 4.98 104.024C4.98 103.752 4.928 103.5 4.824 103.268C4.728 103.036 4.572 102.848 4.356 102.704C4.148 102.552 3.864 102.476 3.504 102.476C3.152 102.476 2.86 102.552 2.628 102.704C2.396 102.856 2.22 103.06 2.1 103.316C1.988 103.564 1.932 103.84 1.932 104.144H0.768C0.776 103.568 0.9 103.08 1.14 102.68C1.38 102.28 1.708 101.976 2.124 101.768C2.54 101.56 3.008 101.456 3.528 101.456C4.064 101.456 4.528 101.556 4.92 101.756C5.312 101.948 5.62 102.232 5.844 102.608C6.068 102.984 6.18 103.436 6.18 103.964C6.18 104.348 6.1 104.732 5.94 105.116C5.788 105.492 5.58 105.86 5.316 106.22C5.052 106.58 4.756 106.928 4.428 107.264C4.108 107.592 3.776 107.904 3.432 108.2C3.088 108.496 2.76 108.764 2.448 109.004H6.432V110H0.72ZM10.7404 110.144C10.1564 110.144 9.65238 110.04 9.22838 109.832C8.80438 109.624 8.47238 109.344 8.23238 108.992C7.99238 108.632 7.84438 108.224 7.78838 107.768H8.96438C9.04438 108.16 9.23638 108.484 9.54038 108.74C9.85238 108.996 10.2564 109.124 10.7524 109.124C11.1124 109.124 11.4204 109.04 11.6764 108.872C11.9404 108.696 12.1404 108.46 12.2764 108.164C12.4204 107.868 12.4924 107.54 12.4924 107.18C12.4924 106.804 12.4204 106.476 12.2764 106.196C12.1404 105.908 11.9444 105.688 11.6884 105.536C11.4324 105.376 11.1324 105.296 10.7884 105.296C10.3724 105.296 10.0164 105.384 9.72038 105.56C9.43238 105.736 9.21638 105.956 9.07238 106.22H7.90838L8.58038 101.6H13.1284V102.644H9.49238L9.07238 105.02C9.26438 104.804 9.52038 104.632 9.84038 104.504C10.1684 104.368 10.5404 104.3 10.9564 104.3C11.3804 104.3 11.7564 104.376 12.0844 104.528C12.4204 104.672 12.7044 104.876 12.9364 105.14C13.1684 105.404 13.3444 105.708 13.4644 106.052C13.5924 106.396 13.6564 106.764 13.6564 107.156C13.6564 107.572 13.5884 107.964 13.4524 108.332C13.3164 108.692 13.1204 109.008 12.8644 109.28C12.6164 109.552 12.3124 109.764 11.9524 109.916C11.5924 110.068 11.1884 110.144 10.7404 110.144Z" fill="#A4A5A6"/>
<path d="M0.72 152V151.136C1.288 150.704 1.824 150.268 2.328 149.828C2.84 149.388 3.296 148.952 3.696 148.52C4.096 148.08 4.408 147.652 4.632 147.236C4.864 146.812 4.98 146.408 4.98 146.024C4.98 145.752 4.928 145.5 4.824 145.268C4.728 145.036 4.572 144.848 4.356 144.704C4.148 144.552 3.864 144.476 3.504 144.476C3.152 144.476 2.86 144.552 2.628 144.704C2.396 144.856 2.22 145.06 2.1 145.316C1.988 145.564 1.932 145.84 1.932 146.144H0.768C0.776 145.568 0.9 145.08 1.14 144.68C1.38 144.28 1.708 143.976 2.124 143.768C2.54 143.56 3.008 143.456 3.528 143.456C4.064 143.456 4.528 143.556 4.92 143.756C5.312 143.948 5.62 144.232 5.844 144.608C6.068 144.984 6.18 145.436 6.18 145.964C6.18 146.348 6.1 146.732 5.94 147.116C5.788 147.492 5.58 147.86 5.316 148.22C5.052 148.58 4.756 148.928 4.428 149.264C4.108 149.592 3.776 149.904 3.432 150.2C3.088 150.496 2.76 150.764 2.448 151.004H6.432V152H0.72ZM10.9706 152.144C10.2426 152.144 9.61463 151.964 9.08663 151.604C8.56663 151.236 8.16663 150.728 7.88663 150.08C7.60663 149.424 7.46663 148.664 7.46663 147.8C7.46663 146.936 7.60663 146.18 7.88663 145.532C8.16663 144.876 8.56663 144.368 9.08663 144.008C9.61463 143.64 10.2426 143.456 10.9706 143.456C11.7066 143.456 12.3306 143.64 12.8426 144.008C13.3626 144.368 13.7626 144.876 14.0426 145.532C14.3306 146.18 14.4746 146.936 14.4746 147.8C14.4746 148.664 14.3306 149.424 14.0426 150.08C13.7626 150.728 13.3626 151.236 12.8426 151.604C12.3306 151.964 11.7066 152.144 10.9706 152.144ZM10.9706 151.076C11.4106 151.076 11.7986 150.944 12.1346 150.68C12.4786 150.416 12.7466 150.04 12.9386 149.552C13.1386 149.064 13.2386 148.48 13.2386 147.8C13.2386 147.112 13.1386 146.528 12.9386 146.048C12.7466 145.56 12.4786 145.188 12.1346 144.932C11.7986 144.668 11.4106 144.536 10.9706 144.536C10.5306 144.536 10.1386 144.668 9.79463 144.932C9.45063 145.188 9.17863 145.56 8.97863 146.048C8.78663 146.528 8.69063 147.112 8.69063 147.8C8.69063 148.48 8.78663 149.064 8.97863 149.552C9.17863 150.04 9.45063 150.416 9.79463 150.68C10.1386 150.944 10.5306 151.076 10.9706 151.076Z" fill="#A4A5A6"/>
<path d="M1.98 194V186.956L0.408 187.412V186.476L2.424 185.6H3.204V194H1.98ZM7.84584 194.144C7.26184 194.144 6.75784 194.04 6.33384 193.832C5.90984 193.624 5.57784 193.344 5.33784 192.992C5.09784 192.632 4.94984 192.224 4.89384 191.768H6.06984C6.14984 192.16 6.34184 192.484 6.64584 192.74C6.95784 192.996 7.36184 193.124 7.85784 193.124C8.21784 193.124 8.52584 193.04 8.78184 192.872C9.04584 192.696 9.24584 192.46 9.38184 192.164C9.52584 191.868 9.59784 191.54 9.59784 191.18C9.59784 190.804 9.52584 190.476 9.38184 190.196C9.24584 189.908 9.04984 189.688 8.79384 189.536C8.53784 189.376 8.23784 189.296 7.89384 189.296C7.47784 189.296 7.12184 189.384 6.82584 189.56C6.53784 189.736 6.32184 189.956 6.17784 190.22H5.01384L5.68584 185.6H10.2338V186.644H6.59784L6.17784 189.02C6.36984 188.804 6.62584 188.632 6.94584 188.504C7.27384 188.368 7.64584 188.3 8.06184 188.3C8.48584 188.3 8.86184 188.376 9.18984 188.528C9.52584 188.672 9.80984 188.876 10.0418 189.14C10.2738 189.404 10.4498 189.708 10.5698 190.052C10.6978 190.396 10.7618 190.764 10.7618 191.156C10.7618 191.572 10.6938 191.964 10.5578 192.332C10.4218 192.692 10.2258 193.008 9.96984 193.28C9.72184 193.552 9.41784 193.764 9.05784 193.916C8.69784 194.068 8.29384 194.144 7.84584 194.144Z" fill="#A4A5A6"/>
<path d="M1.98 236V228.956L0.408 229.412V228.476L2.424 227.6H3.204V236H1.98ZM8.16984 236.144C7.44184 236.144 6.81384 235.964 6.28584 235.604C5.76584 235.236 5.36584 234.728 5.08584 234.08C4.80584 233.424 4.66584 232.664 4.66584 231.8C4.66584 230.936 4.80584 230.18 5.08584 229.532C5.36584 228.876 5.76584 228.368 6.28584 228.008C6.81384 227.64 7.44184 227.456 8.16984 227.456C8.90584 227.456 9.52984 227.64 10.0418 228.008C10.5618 228.368 10.9618 228.876 11.2418 229.532C11.5298 230.18 11.6738 230.936 11.6738 231.8C11.6738 232.664 11.5298 233.424 11.2418 234.08C10.9618 234.728 10.5618 235.236 10.0418 235.604C9.52984 235.964 8.90584 236.144 8.16984 236.144ZM8.16984 235.076C8.60984 235.076 8.99784 234.944 9.33384 234.68C9.67784 234.416 9.94584 234.04 10.1378 233.552C10.3378 233.064 10.4378 232.48 10.4378 231.8C10.4378 231.112 10.3378 230.528 10.1378 230.048C9.94584 229.56 9.67784 229.188 9.33384 228.932C8.99784 228.668 8.60984 228.536 8.16984 228.536C7.72984 228.536 7.33784 228.668 6.99384 228.932C6.64984 229.188 6.37784 229.56 6.17784 230.048C5.98584 230.528 5.88984 231.112 5.88984 231.8C5.88984 232.48 5.98584 233.064 6.17784 233.552C6.37784 234.04 6.64984 234.416 6.99384 234.68C7.33784 234.944 7.72984 235.076 8.16984 235.076Z" fill="#A4A5A6"/>
<path d="M3.756 278.144C3.172 278.144 2.668 278.04 2.244 277.832C1.82 277.624 1.488 277.344 1.248 276.992C1.008 276.632 0.86 276.224 0.804 275.768H1.98C2.06 276.16 2.252 276.484 2.556 276.74C2.868 276.996 3.272 277.124 3.768 277.124C4.128 277.124 4.436 277.04 4.692 276.872C4.956 276.696 5.156 276.46 5.292 276.164C5.436 275.868 5.508 275.54 5.508 275.18C5.508 274.804 5.436 274.476 5.292 274.196C5.156 273.908 4.96 273.688 4.704 273.536C4.448 273.376 4.148 273.296 3.804 273.296C3.388 273.296 3.032 273.384 2.736 273.56C2.448 273.736 2.232 273.956 2.088 274.22H0.924L1.596 269.6H6.144V270.644H2.508L2.088 273.02C2.28 272.804 2.536 272.632 2.856 272.504C3.184 272.368 3.556 272.3 3.972 272.3C4.396 272.3 4.772 272.376 5.1 272.528C5.436 272.672 5.72 272.876 5.952 273.14C6.184 273.404 6.36 273.708 6.48 274.052C6.608 274.396 6.672 274.764 6.672 275.156C6.672 275.572 6.604 275.964 6.468 276.332C6.332 276.692 6.136 277.008 5.88 277.28C5.632 277.552 5.328 277.764 4.968 277.916C4.608 278.068 4.204 278.144 3.756 278.144Z" fill="#A4A5A6"/>
<path d="M4.08 320.144C3.352 320.144 2.724 319.964 2.196 319.604C1.676 319.236 1.276 318.728 0.996 318.08C0.716 317.424 0.576 316.664 0.576 315.8C0.576 314.936 0.716 314.18 0.996 313.532C1.276 312.876 1.676 312.368 2.196 312.008C2.724 311.64 3.352 311.456 4.08 311.456C4.816 311.456 5.44 311.64 5.952 312.008C6.472 312.368 6.872 312.876 7.152 313.532C7.44 314.18 7.584 314.936 7.584 315.8C7.584 316.664 7.44 317.424 7.152 318.08C6.872 318.728 6.472 319.236 5.952 319.604C5.44 319.964 4.816 320.144 4.08 320.144ZM4.08 319.076C4.52 319.076 4.908 318.944 5.244 318.68C5.588 318.416 5.856 318.04 6.048 317.552C6.248 317.064 6.348 316.48 6.348 315.8C6.348 315.112 6.248 314.528 6.048 314.048C5.856 313.56 5.588 313.188 5.244 312.932C4.908 312.668 4.52 312.536 4.08 312.536C3.64 312.536 3.248 312.668 2.904 312.932C2.56 313.188 2.288 313.56 2.088 314.048C1.896 314.528 1.8 315.112 1.8 315.8C1.8 316.48 1.896 317.064 2.088 317.552C2.288 318.04 2.56 318.416 2.904 318.68C3.248 318.944 3.64 319.076 4.08 319.076Z" fill="#A4A5A6"/>
<path d="M33 242C33 235.373 38.3726 230 45 230C51.6274 230 57 235.373 57 242V320H33V242Z" fill="#FF7E86" fill-opacity="0.1"/>
<path d="M73 264C73 257.373 78.3726 252 85 252C91.6274 252 97 257.373 97 264V320H73V264Z" fill="#FF7E86" fill-opacity="0.1"/>
<path d="M113 182C113 175.373 118.373 170 125 170C131.627 170 137 175.373 137 182V320H113V182Z" fill="#FF7E86" fill-opacity="0.1"/>
<path d="M153 146C153 139.373 158.373 134 165 134C171.627 134 177 139.373 177 146V320H153V146Z" fill="#FF6370"/>
<path d="M193 182C193 175.373 198.373 170 205 170C211.627 170 217 175.373 217 182V320H193V182Z" fill="#FF7E86" fill-opacity="0.1"/>
<path d="M233 212C233 205.373 238.373 200 245 200C251.627 200 257 205.373 257 212V320H233V212Z" fill="#FF7E86" fill-opacity="0.1"/>
<path d="M273 164C273 157.373 278.373 152 285 152C291.627 152 297 157.373 297 164V320H273V164Z" fill="#FF7E86" fill-opacity="0.1"/>
<path d="M34.888 338V329.6H36.304L39.1 335.288L41.884 329.6H43.3V338H42.1V331.712L39.556 336.848H38.632L36.088 331.736V338H34.888ZM47.7833 338.144C47.2073 338.144 46.6913 338.012 46.2353 337.748C45.7873 337.476 45.4353 337.1 45.1793 336.62C44.9233 336.132 44.7953 335.568 44.7953 334.928C44.7953 334.28 44.9233 333.716 45.1793 333.236C45.4433 332.748 45.7993 332.372 46.2473 332.108C46.7033 331.836 47.2193 331.7 47.7953 331.7C48.3793 331.7 48.8953 331.836 49.3433 332.108C49.7993 332.372 50.1553 332.748 50.4113 333.236C50.6673 333.716 50.7953 334.28 50.7953 334.928C50.7953 335.568 50.6633 336.132 50.3993 336.62C50.1433 337.1 49.7873 337.476 49.3313 337.748C48.8833 338.012 48.3673 338.144 47.7833 338.144ZM47.7833 337.112C48.1113 337.112 48.4113 337.032 48.6833 336.872C48.9553 336.704 49.1713 336.46 49.3313 336.14C49.4913 335.812 49.5713 335.408 49.5713 334.928C49.5713 334.44 49.4913 334.036 49.3313 333.716C49.1793 333.388 48.9673 333.144 48.6953 332.984C48.4313 332.816 48.1353 332.732 47.8073 332.732C47.4793 332.732 47.1793 332.816 46.9073 332.984C46.6353 333.144 46.4193 333.388 46.2593 333.716C46.0993 334.036 46.0193 334.44 46.0193 334.928C46.0193 335.408 46.0993 335.812 46.2593 336.14C46.4193 336.46 46.6313 336.704 46.8953 336.872C47.1673 337.032 47.4633 337.112 47.7833 337.112ZM52.2186 338V331.844H53.2986L53.3706 332.852C53.5546 332.5 53.8186 332.22 54.1626 332.012C54.5146 331.804 54.9226 331.7 55.3866 331.7C55.8586 331.7 56.2666 331.796 56.6106 331.988C56.9546 332.172 57.2226 332.456 57.4146 332.84C57.6066 333.216 57.7026 333.688 57.7026 334.256V338H56.5026V334.376C56.5026 333.832 56.3746 333.424 56.1186 333.152C55.8706 332.872 55.5186 332.732 55.0626 332.732C54.7586 332.732 54.4786 332.804 54.2226 332.948C53.9746 333.092 53.7786 333.304 53.6346 333.584C53.4906 333.856 53.4186 334.192 53.4186 334.592V338H52.2186Z" fill="#808191"/>
<path d="M80.844 338V330.584H78.348V329.6H84.528V330.584H82.044V338H80.844ZM87.365 338.144C86.893 338.144 86.485 338.052 86.141 337.868C85.797 337.684 85.529 337.404 85.337 337.028C85.153 336.644 85.061 336.168 85.061 335.6V331.844H86.261V335.468C86.261 336.02 86.385 336.436 86.633 336.716C86.881 336.988 87.233 337.124 87.689 337.124C88.001 337.124 88.277 337.052 88.517 336.908C88.765 336.764 88.961 336.556 89.105 336.284C89.257 336.004 89.333 335.66 89.333 335.252V331.844H90.533V338H89.453L89.381 336.992C89.197 337.352 88.929 337.636 88.577 337.844C88.233 338.044 87.829 338.144 87.365 338.144ZM94.9114 338.144C94.3274 338.144 93.8114 338.012 93.3634 337.748C92.9234 337.476 92.5794 337.1 92.3314 336.62C92.0834 336.14 91.9594 335.58 91.9594 334.94C91.9594 334.292 92.0834 333.728 92.3314 333.248C92.5794 332.76 92.9274 332.38 93.3754 332.108C93.8234 331.836 94.3394 331.7 94.9234 331.7C95.5234 331.7 96.0354 331.836 96.4594 332.108C96.8834 332.372 97.2074 332.728 97.4314 333.176C97.6554 333.616 97.7674 334.108 97.7674 334.652C97.7674 334.732 97.7634 334.816 97.7554 334.904C97.7554 334.992 97.7514 335.092 97.7434 335.204H92.8354V334.364H96.5674C96.5514 333.836 96.3874 333.428 96.0754 333.14C95.7634 332.844 95.3754 332.696 94.9114 332.696C94.5914 332.696 94.2954 332.772 94.0234 332.924C93.7594 333.076 93.5434 333.3 93.3754 333.596C93.2154 333.884 93.1354 334.252 93.1354 334.7V335.036C93.1354 335.492 93.2154 335.88 93.3754 336.2C93.5354 336.512 93.7474 336.748 94.0114 336.908C94.2834 337.068 94.5794 337.148 94.8994 337.148C95.2994 337.148 95.6194 337.068 95.8594 336.908C96.0994 336.74 96.2754 336.516 96.3874 336.236H97.5994C97.4954 336.596 97.3194 336.92 97.0714 337.208C96.8234 337.496 96.5154 337.724 96.1474 337.892C95.7874 338.06 95.3754 338.144 94.9114 338.144Z" fill="#808191"/>
<path d="M120.592 338L118.324 329.6H119.608L121.312 336.596L123.268 329.6H124.6L126.496 336.62L128.224 329.6H129.508L127.18 338H125.788L123.904 331.316L121.972 338H120.592ZM132.755 338.144C132.171 338.144 131.655 338.012 131.207 337.748C130.767 337.476 130.423 337.1 130.175 336.62C129.927 336.14 129.803 335.58 129.803 334.94C129.803 334.292 129.927 333.728 130.175 333.248C130.423 332.76 130.771 332.38 131.219 332.108C131.667 331.836 132.183 331.7 132.767 331.7C133.367 331.7 133.879 331.836 134.303 332.108C134.727 332.372 135.051 332.728 135.275 333.176C135.499 333.616 135.611 334.108 135.611 334.652C135.611 334.732 135.607 334.816 135.599 334.904C135.599 334.992 135.595 335.092 135.587 335.204H130.679V334.364H134.411C134.395 333.836 134.231 333.428 133.919 333.14C133.607 332.844 133.219 332.696 132.755 332.696C132.435 332.696 132.139 332.772 131.867 332.924C131.603 333.076 131.387 333.3 131.219 333.596C131.059 333.884 130.979 334.252 130.979 334.7V335.036C130.979 335.492 131.059 335.88 131.219 336.2C131.379 336.512 131.591 336.748 131.855 336.908C132.127 337.068 132.423 337.148 132.743 337.148C133.143 337.148 133.463 337.068 133.703 336.908C133.943 336.74 134.119 336.516 134.231 336.236H135.443C135.339 336.596 135.163 336.92 134.915 337.208C134.667 337.496 134.359 337.724 133.991 337.892C133.631 338.06 133.219 338.144 132.755 338.144ZM139.609 338.144C139.049 338.144 138.549 338.004 138.109 337.724C137.677 337.444 137.341 337.064 137.101 336.584C136.861 336.096 136.741 335.544 136.741 334.928C136.741 334.304 136.861 333.752 137.101 333.272C137.349 332.784 137.689 332.4 138.121 332.12C138.561 331.84 139.069 331.7 139.645 331.7C140.117 331.7 140.529 331.796 140.881 331.988C141.233 332.172 141.509 332.432 141.709 332.768V329.36H142.909V338H141.841L141.721 337.052C141.593 337.244 141.433 337.424 141.241 337.592C141.057 337.752 140.829 337.884 140.557 337.988C140.285 338.092 139.969 338.144 139.609 338.144ZM139.825 337.1C140.201 337.1 140.529 337.012 140.809 336.836C141.097 336.652 141.317 336.4 141.469 336.08C141.621 335.752 141.697 335.368 141.697 334.928C141.697 334.488 141.621 334.104 141.469 333.776C141.317 333.448 141.097 333.196 140.809 333.02C140.529 332.836 140.201 332.744 139.825 332.744C139.465 332.744 139.145 332.836 138.865 333.02C138.585 333.196 138.365 333.448 138.205 333.776C138.045 334.104 137.965 334.488 137.965 334.928C137.965 335.36 138.045 335.74 138.205 336.068C138.365 336.396 138.585 336.652 138.865 336.836C139.145 337.012 139.465 337.1 139.825 337.1Z" fill="#808191"/>
<path d="M165.844 338V330.584H163.348V329.6H169.528V330.584H167.044V338H165.844ZM170.719 338V329.36H171.919V332.828C172.127 332.484 172.407 332.212 172.759 332.012C173.111 331.804 173.499 331.7 173.923 331.7C174.411 331.7 174.827 331.796 175.171 331.988C175.515 332.18 175.775 332.468 175.951 332.852C176.135 333.236 176.227 333.716 176.227 334.292V338H175.039V334.412C175.039 333.86 174.915 333.444 174.667 333.164C174.419 332.876 174.067 332.732 173.611 332.732C173.299 332.732 173.015 332.808 172.759 332.96C172.503 333.104 172.299 333.32 172.147 333.608C171.995 333.888 171.919 334.236 171.919 334.652V338H170.719ZM180.064 338.144C179.592 338.144 179.184 338.052 178.84 337.868C178.496 337.684 178.228 337.404 178.036 337.028C177.852 336.644 177.76 336.168 177.76 335.6V331.844H178.96V335.468C178.96 336.02 179.084 336.436 179.332 336.716C179.58 336.988 179.932 337.124 180.388 337.124C180.7 337.124 180.976 337.052 181.216 336.908C181.464 336.764 181.66 336.556 181.804 336.284C181.956 336.004 182.032 335.66 182.032 335.252V331.844H183.232V338H182.152L182.08 336.992C181.896 337.352 181.628 337.636 181.276 337.844C180.932 338.044 180.528 338.144 180.064 338.144Z" fill="#808191"/>
<path d="M204.888 338V329.6H210.12V330.584H206.088V333.308H209.46V334.268H206.088V338H204.888ZM211.355 338V331.844H212.435L212.531 332.984C212.675 332.712 212.859 332.48 213.083 332.288C213.307 332.096 213.571 331.952 213.875 331.856C214.187 331.752 214.535 331.7 214.919 331.7V332.972H214.379C214.139 332.972 213.907 333.004 213.683 333.068C213.467 333.124 213.271 333.224 213.095 333.368C212.927 333.504 212.795 333.692 212.699 333.932C212.603 334.172 212.555 334.476 212.555 334.844V338H211.355ZM216.127 338V331.844H217.327V338H216.127ZM216.727 330.74C216.495 330.74 216.303 330.668 216.151 330.524C216.007 330.38 215.935 330.196 215.935 329.972C215.935 329.756 216.007 329.58 216.151 329.444C216.303 329.3 216.495 329.228 216.727 329.228C216.951 329.228 217.139 329.3 217.291 329.444C217.443 329.58 217.519 329.756 217.519 329.972C217.519 330.196 217.443 330.38 217.291 330.524C217.139 330.668 216.951 330.74 216.727 330.74Z" fill="#808191"/>
<path d="M241.636 338.144C241.028 338.144 240.492 338.036 240.028 337.82C239.564 337.596 239.204 337.284 238.948 336.884C238.692 336.484 238.56 336.016 238.552 335.48H239.824C239.824 335.784 239.892 336.064 240.028 336.32C240.172 336.568 240.376 336.768 240.64 336.92C240.912 337.064 241.244 337.136 241.636 337.136C241.972 337.136 242.26 337.08 242.5 336.968C242.748 336.856 242.936 336.704 243.064 336.512C243.192 336.312 243.256 336.084 243.256 335.828C243.256 335.54 243.192 335.304 243.064 335.12C242.936 334.928 242.756 334.768 242.524 334.64C242.3 334.512 242.04 334.4 241.744 334.304C241.456 334.208 241.144 334.104 240.808 333.992C240.128 333.768 239.624 333.484 239.296 333.14C238.976 332.796 238.816 332.348 238.816 331.796C238.816 331.324 238.924 330.916 239.14 330.572C239.364 330.22 239.68 329.948 240.088 329.756C240.496 329.556 240.972 329.456 241.516 329.456C242.068 329.456 242.544 329.556 242.944 329.756C243.352 329.956 243.672 330.232 243.904 330.584C244.136 330.936 244.256 331.348 244.264 331.82H242.992C242.992 331.604 242.932 331.392 242.812 331.184C242.7 330.976 242.532 330.808 242.308 330.68C242.092 330.544 241.82 330.476 241.492 330.476C241.212 330.468 240.964 330.512 240.748 330.608C240.532 330.704 240.364 330.844 240.244 331.028C240.124 331.212 240.064 331.432 240.064 331.688C240.064 331.944 240.12 332.152 240.232 332.312C240.344 332.464 240.5 332.596 240.7 332.708C240.908 332.82 241.152 332.924 241.432 333.02C241.712 333.108 242.02 333.208 242.356 333.32C242.764 333.456 243.132 333.624 243.46 333.824C243.788 334.016 244.044 334.268 244.228 334.58C244.42 334.884 244.516 335.276 244.516 335.756C244.516 336.172 244.408 336.56 244.192 336.92C243.976 337.28 243.656 337.576 243.232 337.808C242.808 338.032 242.276 338.144 241.636 338.144ZM247.898 338.144C247.41 338.144 247.002 338.06 246.674 337.892C246.354 337.716 246.114 337.484 245.954 337.196C245.794 336.908 245.714 336.596 245.714 336.26C245.714 335.86 245.814 335.516 246.014 335.228C246.222 334.94 246.518 334.72 246.902 334.568C247.286 334.416 247.746 334.34 248.282 334.34H249.842C249.842 333.972 249.794 333.668 249.698 333.428C249.602 333.188 249.45 333.008 249.242 332.888C249.042 332.768 248.782 332.708 248.462 332.708C248.11 332.708 247.81 332.792 247.562 332.96C247.314 333.128 247.158 333.376 247.094 333.704H245.894C245.942 333.28 246.086 332.92 246.326 332.624C246.566 332.328 246.87 332.1 247.238 331.94C247.614 331.78 248.022 331.7 248.462 331.7C249.03 331.7 249.502 331.8 249.878 332C250.262 332.2 250.55 332.484 250.742 332.852C250.942 333.212 251.042 333.644 251.042 334.148V338H249.986L249.89 336.968C249.81 337.136 249.706 337.292 249.578 337.436C249.458 337.572 249.314 337.696 249.146 337.808C248.986 337.912 248.802 337.992 248.594 338.048C248.386 338.112 248.154 338.144 247.898 338.144ZM248.126 337.172C248.374 337.172 248.602 337.12 248.81 337.016C249.018 336.904 249.194 336.76 249.338 336.584C249.49 336.4 249.606 336.196 249.686 335.972C249.766 335.74 249.81 335.496 249.818 335.24V335.18H248.402C248.058 335.18 247.782 335.224 247.574 335.312C247.366 335.4 247.214 335.52 247.118 335.672C247.022 335.816 246.974 335.984 246.974 336.176C246.974 336.376 247.018 336.552 247.106 336.704C247.194 336.848 247.326 336.964 247.502 337.052C247.678 337.132 247.886 337.172 248.126 337.172ZM255.012 338C254.628 338 254.296 337.94 254.016 337.82C253.736 337.7 253.52 337.5 253.368 337.22C253.216 336.94 253.14 336.56 253.14 336.08V332.864H252.084V331.844H253.14L253.296 330.284H254.34V331.844H256.068V332.864H254.34V336.092C254.34 336.436 254.412 336.672 254.556 336.8C254.7 336.92 254.948 336.98 255.3 336.98H256.032V338H255.012Z" fill="#808191"/>
<path d="M279.636 338.144C279.028 338.144 278.492 338.036 278.028 337.82C277.564 337.596 277.204 337.284 276.948 336.884C276.692 336.484 276.56 336.016 276.552 335.48H277.824C277.824 335.784 277.892 336.064 278.028 336.32C278.172 336.568 278.376 336.768 278.64 336.92C278.912 337.064 279.244 337.136 279.636 337.136C279.972 337.136 280.26 337.08 280.5 336.968C280.748 336.856 280.936 336.704 281.064 336.512C281.192 336.312 281.256 336.084 281.256 335.828C281.256 335.54 281.192 335.304 281.064 335.12C280.936 334.928 280.756 334.768 280.524 334.64C280.3 334.512 280.04 334.4 279.744 334.304C279.456 334.208 279.144 334.104 278.808 333.992C278.128 333.768 277.624 333.484 277.296 333.14C276.976 332.796 276.816 332.348 276.816 331.796C276.816 331.324 276.924 330.916 277.14 330.572C277.364 330.22 277.68 329.948 278.088 329.756C278.496 329.556 278.972 329.456 279.516 329.456C280.068 329.456 280.544 329.556 280.944 329.756C281.352 329.956 281.672 330.232 281.904 330.584C282.136 330.936 282.256 331.348 282.264 331.82H280.992C280.992 331.604 280.932 331.392 280.812 331.184C280.7 330.976 280.532 330.808 280.308 330.68C280.092 330.544 279.82 330.476 279.492 330.476C279.212 330.468 278.964 330.512 278.748 330.608C278.532 330.704 278.364 330.844 278.244 331.028C278.124 331.212 278.064 331.432 278.064 331.688C278.064 331.944 278.12 332.152 278.232 332.312C278.344 332.464 278.5 332.596 278.7 332.708C278.908 332.82 279.152 332.924 279.432 333.02C279.712 333.108 280.02 333.208 280.356 333.32C280.764 333.456 281.132 333.624 281.46 333.824C281.788 334.016 282.044 334.268 282.228 334.58C282.42 334.884 282.516 335.276 282.516 335.756C282.516 336.172 282.408 336.56 282.192 336.92C281.976 337.28 281.656 337.576 281.232 337.808C280.808 338.032 280.276 338.144 279.636 338.144ZM286.15 338.144C285.678 338.144 285.27 338.052 284.926 337.868C284.582 337.684 284.314 337.404 284.122 337.028C283.938 336.644 283.846 336.168 283.846 335.6V331.844H285.046V335.468C285.046 336.02 285.17 336.436 285.418 336.716C285.666 336.988 286.018 337.124 286.474 337.124C286.786 337.124 287.062 337.052 287.302 336.908C287.55 336.764 287.746 336.556 287.89 336.284C288.042 336.004 288.118 335.66 288.118 335.252V331.844H289.318V338H288.238L288.166 336.992C287.982 337.352 287.714 337.636 287.362 337.844C287.018 338.044 286.614 338.144 286.15 338.144ZM290.973 338V331.844H292.053L292.125 332.852C292.309 332.5 292.573 332.22 292.917 332.012C293.269 331.804 293.677 331.7 294.141 331.7C294.613 331.7 295.021 331.796 295.365 331.988C295.709 332.172 295.977 332.456 296.169 332.84C296.361 333.216 296.457 333.688 296.457 334.256V338H295.257V334.376C295.257 333.832 295.129 333.424 294.873 333.152C294.625 332.872 294.273 332.732 293.817 332.732C293.513 332.732 293.233 332.804 292.977 332.948C292.729 333.092 292.533 333.304 292.389 333.584C292.245 333.856 292.173 334.192 292.173 334.592V338H290.973Z" fill="#808191"/>
<path d="M180.5 136C180.5 133.239 182.739 131 185.5 131H236.5C239.261 131 241.5 133.239 241.5 136V160C241.5 162.761 239.261 165 236.5 165H185.5C182.739 165 180.5 162.761 180.5 160V154.673L171.969 149.352C170.656 148.533 170.73 146.597 172.102 145.882L180.5 141.5V136Z" fill="#2B2945"/>
<path d="M190.624 152V150.812C191.144 150.404 191.648 149.996 192.136 149.588C192.624 149.18 193.06 148.776 193.444 148.376C193.836 147.968 194.144 147.572 194.368 147.188C194.6 146.804 194.716 146.432 194.716 146.072C194.716 145.848 194.672 145.644 194.584 145.46C194.504 145.268 194.376 145.116 194.2 145.004C194.024 144.884 193.792 144.824 193.504 144.824C193.224 144.824 192.984 144.888 192.784 145.016C192.592 145.144 192.444 145.316 192.34 145.532C192.244 145.74 192.196 145.976 192.196 146.24H190.636C190.652 145.624 190.788 145.108 191.044 144.692C191.308 144.276 191.656 143.968 192.088 143.768C192.528 143.56 193.016 143.456 193.552 143.456C194.144 143.456 194.644 143.568 195.052 143.792C195.468 144.008 195.784 144.304 196 144.68C196.224 145.056 196.336 145.488 196.336 145.976C196.336 146.344 196.264 146.704 196.12 147.056C195.984 147.408 195.796 147.752 195.556 148.088C195.324 148.416 195.06 148.732 194.764 149.036C194.468 149.34 194.156 149.632 193.828 149.912C193.5 150.184 193.184 150.44 192.88 150.68H196.528V152H190.624ZM200.656 152.144C200.104 152.144 199.6 152.044 199.144 151.844C198.696 151.644 198.336 151.34 198.064 150.932C197.792 150.524 197.648 150.008 197.632 149.384H199.216C199.224 149.648 199.284 149.888 199.396 150.104C199.508 150.312 199.668 150.48 199.876 150.608C200.092 150.728 200.352 150.788 200.656 150.788C200.936 150.788 201.176 150.732 201.376 150.62C201.576 150.508 201.728 150.36 201.832 150.176C201.936 149.992 201.988 149.78 201.988 149.54C201.988 149.268 201.916 149.04 201.772 148.856C201.636 148.672 201.444 148.532 201.196 148.436C200.956 148.34 200.68 148.292 200.368 148.292H199.744V146.96H200.368C200.768 146.96 201.104 146.868 201.376 146.684C201.648 146.492 201.784 146.208 201.784 145.832C201.784 145.528 201.68 145.284 201.472 145.1C201.272 144.916 200.996 144.824 200.644 144.824C200.244 144.824 199.932 144.936 199.708 145.16C199.492 145.384 199.372 145.66 199.348 145.988H197.776C197.8 145.46 197.932 145.008 198.172 144.632C198.42 144.248 198.756 143.956 199.18 143.756C199.604 143.556 200.092 143.456 200.644 143.456C201.236 143.456 201.732 143.56 202.132 143.768C202.54 143.968 202.848 144.24 203.056 144.584C203.272 144.928 203.38 145.304 203.38 145.712C203.38 146.04 203.316 146.332 203.188 146.588C203.06 146.844 202.892 147.06 202.684 147.236C202.476 147.404 202.244 147.524 201.988 147.596C202.3 147.652 202.572 147.772 202.804 147.956C203.044 148.14 203.228 148.372 203.356 148.652C203.492 148.924 203.56 149.24 203.56 149.6C203.56 150.056 203.448 150.48 203.224 150.872C203 151.256 202.672 151.564 202.24 151.796C201.808 152.028 201.28 152.144 200.656 152.144ZM209.084 152L206.516 148.652L208.844 145.844H210.764L207.752 149.324V148.04L211.1 152H209.084ZM205.136 152V143.36H206.756V152H205.136ZM212.085 152V145.844H213.513L213.645 146.648C213.837 146.36 214.089 146.132 214.401 145.964C214.721 145.788 215.081 145.7 215.481 145.7C215.785 145.7 216.053 145.74 216.285 145.82C216.525 145.9 216.737 146.016 216.921 146.168C217.105 146.32 217.257 146.508 217.377 146.732C217.601 146.412 217.889 146.16 218.241 145.976C218.601 145.792 218.989 145.7 219.405 145.7C219.933 145.7 220.369 145.804 220.713 146.012C221.065 146.22 221.325 146.52 221.493 146.912C221.669 147.304 221.757 147.78 221.757 148.34V152H220.149V148.484C220.149 148.028 220.053 147.68 219.861 147.44C219.677 147.192 219.397 147.068 219.021 147.068C218.765 147.068 218.541 147.128 218.349 147.248C218.157 147.368 218.005 147.544 217.893 147.776C217.789 148.008 217.737 148.284 217.737 148.604V152H216.117V148.484C216.117 148.028 216.021 147.68 215.829 147.44C215.645 147.192 215.357 147.068 214.965 147.068C214.725 147.068 214.509 147.128 214.317 147.248C214.125 147.368 213.973 147.544 213.861 147.776C213.757 148.008 213.705 148.284 213.705 148.604V152H212.085ZM222.831 153.368L225.819 142.652H227.403L224.403 153.368H222.831ZM228.492 152V143.36H230.112V146.744C230.312 146.432 230.58 146.18 230.916 145.988C231.252 145.796 231.636 145.7 232.068 145.7C232.572 145.7 232.996 145.804 233.34 146.012C233.692 146.22 233.952 146.524 234.12 146.924C234.296 147.316 234.384 147.8 234.384 148.376V152H232.776V148.52C232.776 148.056 232.672 147.7 232.464 147.452C232.256 147.196 231.94 147.068 231.516 147.068C231.26 147.068 231.024 147.132 230.808 147.26C230.592 147.38 230.42 147.56 230.292 147.8C230.172 148.032 230.112 148.312 230.112 148.64V152H228.492Z" fill="white"/>
</svg>
