<svg width="22" height="22" viewBox="0 0 22 22" fill="none" xmlns="http://www.w3.org/2000/svg">
<path d="M17.4167 8.70834H17.1234L15.9775 5.84834C15.7729 5.33983 15.421 4.90407 14.9669 4.59701C14.5128 4.28994 13.9774 4.12558 13.4292 4.12501H7.92921C7.29239 4.12319 6.67468 4.34244 6.18151 4.74533C5.68834 5.14823 5.35028 5.70979 5.22504 6.33418L4.74837 8.70834H4.58337C3.85403 8.70834 3.15456 8.99808 2.63883 9.5138C2.12311 10.0295 1.83337 10.729 1.83337 11.4583V14.2083C1.83337 14.4515 1.92995 14.6846 2.10186 14.8565C2.27377 15.0284 2.50693 15.125 2.75004 15.125H3.66671C3.66671 15.8544 3.95644 16.5538 4.47216 17.0696C4.98789 17.5853 5.68736 17.875 6.41671 17.875C7.14605 17.875 7.84553 17.5853 8.36125 17.0696C8.87698 16.5538 9.16671 15.8544 9.16671 15.125H12.8334C12.8334 15.8544 13.1231 16.5538 13.6388 17.0696C14.1546 17.5853 14.854 17.875 15.5834 17.875C16.3127 17.875 17.0122 17.5853 17.5279 17.0696C18.0436 16.5538 18.3334 15.8544 18.3334 15.125H19.25C19.4932 15.125 19.7263 15.0284 19.8982 14.8565C20.0701 14.6846 20.1667 14.4515 20.1667 14.2083V11.4583C20.1667 10.729 19.877 10.0295 19.3613 9.5138C18.8455 8.99808 18.1461 8.70834 17.4167 8.70834ZM11.9167 5.95834H13.4292C13.6112 5.95999 13.7886 6.0158 13.9388 6.11864C14.089 6.22149 14.2052 6.36673 14.2725 6.53584L15.1434 8.70834H11.9167V5.95834ZM7.02171 6.69168C7.06456 6.48151 7.17976 6.29302 7.34725 6.15903C7.51475 6.02504 7.72392 5.95402 7.93837 5.95834H10.0834V8.70834H6.61837L7.02171 6.69168ZM6.41671 16.0417C6.23541 16.0417 6.05818 15.9879 5.90743 15.8872C5.75669 15.7865 5.6392 15.6433 5.56982 15.4758C5.50044 15.3083 5.48228 15.124 5.51765 14.9462C5.55302 14.7684 5.64033 14.605 5.76853 14.4768C5.89672 14.3486 6.06006 14.2613 6.23787 14.226C6.41569 14.1906 6.6 14.2087 6.7675 14.2781C6.935 14.3475 7.07816 14.465 7.17889 14.6157C7.27961 14.7665 7.33337 14.9437 7.33337 15.125C7.33337 15.3681 7.2368 15.6013 7.06489 15.7732C6.89298 15.9451 6.65982 16.0417 6.41671 16.0417ZM15.5834 16.0417C15.4021 16.0417 15.2248 15.9879 15.0741 15.8872C14.9234 15.7865 14.8059 15.6433 14.7365 15.4758C14.6671 15.3083 14.649 15.124 14.6843 14.9462C14.7197 14.7684 14.807 14.605 14.9352 14.4768C15.0634 14.3486 15.2267 14.2613 15.4045 14.226C15.5824 14.1906 15.7667 14.2087 15.9342 14.2781C16.1017 14.3475 16.2448 14.465 16.3456 14.6157C16.4463 14.7665 16.5 14.9437 16.5 15.125C16.5 15.3681 16.4035 15.6013 16.2316 15.7732C16.0596 15.9451 15.8265 16.0417 15.5834 16.0417ZM18.3334 13.2917H17.6184C17.3606 13.0081 17.0465 12.7815 16.696 12.6265C16.3456 12.4714 15.9666 12.3913 15.5834 12.3913C15.2002 12.3913 14.8212 12.4714 14.4707 12.6265C14.1203 12.7815 13.8061 13.0081 13.5484 13.2917H8.45171C8.19396 13.0081 7.87979 12.7815 7.52934 12.6265C7.1789 12.4714 6.79992 12.3913 6.41671 12.3913C6.0335 12.3913 5.65452 12.4714 5.30407 12.6265C4.95363 12.7815 4.63946 13.0081 4.38171 13.2917H3.66671V11.4583C3.66671 11.2152 3.76328 10.9821 3.93519 10.8102C4.1071 10.6383 4.34026 10.5417 4.58337 10.5417H17.4167C17.6598 10.5417 17.893 10.6383 18.0649 10.8102C18.2368 10.9821 18.3334 11.2152 18.3334 11.4583V13.2917Z" fill="#494949"/>
</svg>
