<svg width="22" height="22" viewBox="0 0 22 22" fill="none" xmlns="http://www.w3.org/2000/svg">
<path d="M18.8284 5.76587L17.4167 4.35421L16.1242 3.06171C16.0387 2.97624 15.9373 2.90844 15.8256 2.86219C15.7139 2.81593 15.5942 2.79212 15.4734 2.79212C15.3525 2.79212 15.2328 2.81593 15.1211 2.86219C15.0095 2.90844 14.908 2.97624 14.8225 3.06171C14.7371 3.14718 14.6693 3.24864 14.623 3.36031C14.5768 3.47198 14.553 3.59167 14.553 3.71254C14.553 3.83341 14.5768 3.9531 14.623 4.06477C14.6693 4.17644 14.7371 4.27791 14.8225 4.36337L15.7392 5.28004L14.9784 7.56254C14.8175 8.04748 14.7949 8.56765 14.9131 9.06472C15.0313 9.56179 15.2856 10.0161 15.6475 10.3767L18.3517 13.1267V17.4167C18.3517 17.6598 18.2551 17.893 18.0832 18.0649C17.9113 18.2368 17.6782 18.3334 17.435 18.3334C17.1919 18.3334 16.9588 18.2368 16.7869 18.0649C16.615 17.893 16.5184 17.6598 16.5184 17.4167V15.5834C16.5184 14.854 16.2286 14.1546 15.7129 13.6388C15.1972 13.1231 14.4977 12.8334 13.7684 12.8334H12.8334V4.58337C12.8334 3.85403 12.5436 3.15456 12.0279 2.63883C11.5122 2.12311 10.8127 1.83337 10.0834 1.83337H4.58337C3.85403 1.83337 3.15456 2.12311 2.63883 2.63883C2.12311 3.15456 1.83337 3.85403 1.83337 4.58337V17.4167C1.83337 18.1461 2.12311 18.8455 2.63883 19.3613C3.15456 19.877 3.85403 20.1667 4.58337 20.1667H10.0834C10.8127 20.1667 11.5122 19.877 12.0279 19.3613C12.5436 18.8455 12.8334 18.1461 12.8334 17.4167V14.6667H13.75C13.9932 14.6667 14.2263 14.7633 14.3982 14.9352C14.5701 15.1071 14.6667 15.3403 14.6667 15.5834V17.4167C14.6667 18.1461 14.9564 18.8455 15.4722 19.3613C15.9879 19.877 16.6874 20.1667 17.4167 20.1667C18.1461 20.1667 18.8455 19.877 19.3613 19.3613C19.877 18.8455 20.1667 18.1461 20.1667 17.4167V9.01087C20.1678 8.40858 20.0501 7.81198 19.8205 7.25518C19.5909 6.69838 19.2537 6.1923 18.8284 5.76587ZM11 17.4167C11 17.6598 10.9035 17.893 10.7316 18.0649C10.5596 18.2368 10.3265 18.3334 10.0834 18.3334H4.58337C4.34026 18.3334 4.1071 18.2368 3.93519 18.0649C3.76328 17.893 3.66671 17.6598 3.66671 17.4167V11H11V17.4167ZM11 9.16671H3.66671V4.58337C3.66671 4.34026 3.76328 4.1071 3.93519 3.93519C4.1071 3.76328 4.34026 3.66671 4.58337 3.66671H10.0834C10.3265 3.66671 10.5596 3.76328 10.7316 3.93519C10.9035 4.1071 11 4.34026 11 4.58337V9.16671ZM18.3334 10.4684L16.9217 9.05671C16.8055 8.93816 16.7236 8.79027 16.6848 8.62882C16.6461 8.46737 16.6519 8.29843 16.7017 8.14004L17.1692 6.72837L17.5267 7.09504C18.0359 7.60351 18.3255 8.29132 18.3334 9.01087V10.4684Z" fill="#494949"/>
</svg>
